<svg xmlns="http://www.w3.org/2000/svg" xmlns:xlink="http://www.w3.org/1999/xlink" width="200" height="200" class="icon" p-id="24528" t="1603003033155" version="1.1" viewBox="0 0 1024 1024"><defs><style type="text/css"/></defs><path fill="#727272" d="M316.4 960c-77.8 0-150.6-10.7-185.4-28.5l29.1-57.1c24.5 12.5 110.4 26.4 207.9 19.7 50.1-3.4 96.2-11.9 133.3-24.5 41.1-14 71.2-32.7 89.4-55.6 19.9-25 25.6-55.4 17.4-92.8-10.5-47.9-43.4-105.3-97.8-170.5-56.5-67.8-93.7-130.2-110.6-185.6-16.2-53.1-14.5-101.2 5-143 17.9-38.3 50.6-70.5 97.1-95.5 34.9-18.8 77.9-33.8 127.7-44.5 83.2-17.9 157-18 160.2-18l-0.1 64.1c-0.9 0-71.2 0.2-147.7 16.8-66.2 14.4-151.1 44.2-179.2 104.4-12.8 27.3-13.3 59.1-1.7 97 14.4 47.1 47.5 102 98.5 163.2 61.1 73.3 98.5 139.8 111.2 197.9 6.3 28.6 6.8 55.8 1.4 80.8-5.1 24-15.7 46.2-31.3 65.8-26 32.7-66 58.3-118.9 76.3-42.9 14.6-93.2 24-149.6 27.8-18.5 1.2-37.3 1.8-55.9 1.8z" p-id="24529"/><path fill="#CE6043" d="M230.1 379.3c0 45.8-37.2 83-83.1 83s-83-37.3-83-83 37.2-83 83.1-83 83 37.2 83 83z" p-id="24530"/><path fill="#497CAD" d="M429.4 730.5c0 45.8-37.2 83-83.1 83s-83.1-37.2-83.1-83 37.2-83 83.1-83 83.1 37.2 83.1 83z" p-id="24531"/><path fill="#CE6043" d="M960 711.1c0 45.8-37.2 83-83.1 83s-83.1-37.2-83.1-83 37.2-83 83.1-83 83.1 37.3 83.1 83z" p-id="24532"/><path fill="#497CAD" d="M784.7 316.9c0 45.8-37.2 83-83.1 83s-83.1-37.2-83.1-83 37.2-83 83.1-83 83.1 37.3 83.1 83z" p-id="24533"/></svg>